<?xml version="1.0" encoding="iso-8859-1"?>
<!-- Generator: Adobe Illustrator 19.0.0, SVG Export Plug-In . SVG Version: 6.00 Build 0)  -->
<svg xmlns="http://www.w3.org/2000/svg" xmlns:xlink="http://www.w3.org/1999/xlink" version="1.1" id="Layer_1" x="0px" y="0px" viewBox="0 0 469.333 469.333" style="enable-background:new 0 0 469.333 469.333;" xml:space="preserve" width="512px" height="512px">
<g>
	<g>
		<path d="M467.784,154.79l0.143-0.082L385.667,10.75C381.875,4.104,374.802,0,367.146,0H102.187    c-7.656,0-14.729,4.104-18.521,10.75L1.406,154.708l0.143,0.082C0.652,156.353,0,158.066,0,160v266.667    c0,23.531,19.135,42.667,42.667,42.667h384c23.531,0,42.667-19.135,42.667-42.667V160    C469.333,158.066,468.681,156.353,467.784,154.79z M320,298.667H149.333c-23.531,0-42.667-19.135-42.667-42.667    s19.135-42.667,42.667-42.667H320c23.531,0,42.667,19.135,42.667,42.667S343.531,298.667,320,298.667z M53.616,149.333    l60.957-106.667H354.76l60.957,106.667H53.616z" fill="#F4EEE2"/>
	</g>
</g>
<g>
</g>
<g>
</g>
<g>
</g>
<g>
</g>
<g>
</g>
<g>
</g>
<g>
</g>
<g>
</g>
<g>
</g>
<g>
</g>
<g>
</g>
<g>
</g>
<g>
</g>
<g>
</g>
<g>
</g>
</svg>
