<?xml version="1.0" encoding="iso-8859-1"?>
<!-- Generator: Adobe Illustrator 19.0.0, SVG Export Plug-In . SVG Version: 6.00 Build 0)  -->
<svg version="1.1" id="Layer_1" xmlns="http://www.w3.org/2000/svg" xmlns:xlink="http://www.w3.org/1999/xlink" x="0px" y="0px"
	 viewBox="0 0 505 505" style="enable-background:new 0 0 505 505;" xml:space="preserve">
<circle style="fill:#354751;" cx="252.5" cy="252.5" r="252.5"/>
<path style="fill:#E6E9EE;" d="M84.9,209.6v147c0,1.6,1.3,3,3,3h329.3c1.6,0,3-1.3,3-3v-147H84.9z"/>
<path style="fill:#ACB3BA;" d="M420.1,237.7v-42c0-10.3-8.4-18.7-18.7-18.7H103.5c-10.3,0-18.7,8.4-18.7,18.7v42H420.1z"/>
<g>
	<rect x="128.3" y="111.6" style="fill:#324A5E;" width="195.3" height="65.4"/>
	<ellipse style="fill:#324A5E;" cx="389.3" cy="208.6" rx="9.7" ry="12.2"/>
	<ellipse style="fill:#324A5E;" cx="360.4" cy="208.6" rx="9.7" ry="12.2"/>
</g>
<g>
	<rect x="150.7" y="87.5" style="fill:#FFFFFF;" width="150.6" height="89.9"/>
	<polygon style="fill:#FFFFFF;" points="329.7,417.5 122.4,417.5 150.7,323.1 301.3,323.1 	"/>
</g>
<path style="fill:#324A5E;" d="M323.7,324.4v-21.2c0-10-8.1-18.1-18.1-18.1H146.4c-10,0-18.1,8.1-18.1,18.1v21.2H323.7z"/>
<g>
</g>
<g>
</g>
<g>
</g>
<g>
</g>
<g>
</g>
<g>
</g>
<g>
</g>
<g>
</g>
<g>
</g>
<g>
</g>
<g>
</g>
<g>
</g>
<g>
</g>
<g>
</g>
<g>
</g>
</svg>
