<?xml version="1.0" encoding="iso-8859-1"?>
<!-- Generator: Adobe Illustrator 18.1.1, SVG Export Plug-In . SVG Version: 6.00 Build 0)  -->
<svg xmlns="http://www.w3.org/2000/svg" xmlns:xlink="http://www.w3.org/1999/xlink" version="1.1" id="Capa_1" x="0px" y="0px" viewBox="0 0 492.125 492.125" style="enable-background:new 0 0 492.125 492.125;" xml:space="preserve" width="512px" height="512px">
<g>
	<g>
		<g>
			<path d="M191.5,77.062c9.667,0,17.834-3.333,24.5-10c6.667-6.667,10-14.5,10-23.5s-3.333-16.833-10-23.5     s-14.833-10-24.5-10s-17.833,3.333-24.5,10s-10,14.5-10,23.5s3.333,16.833,10,23.5S181.834,77.062,191.5,77.062z" fill="#F4EEE2"/>
			<path d="M491,147.062c-2-6-5.667-10.667-11-14l-69-44l4-35l-139,141h-50v-32l43,10c4,0.667,8-0.167,12-2.5     s6.5-5.667,7.5-10s0.333-8.333-2-12c-2.333-3.662-5.833-5.828-10.5-6.5l-50-13v-11c0-9.333-3.667-17.167-11-23.5     s-15.833-9.5-25.5-9.5s-18,3.167-25,9.5c-7,6.332-10.5,14.165-10.5,23.5v77H51c-14.667,0-26.833,4.167-36.5,12.5     S0,226.729,0,240.062v78h31v-77l20-28v96l-20,29v122c0,5.333,2.667,10.333,8,15s11.167,7,17.5,7s12.167-2.167,17.5-6.5     s8-9.5,8-15.5v-106l21-34v36l50,114c3.333,5.333,8,8.833,14,10.5s11.833,1,17.5-2s9.333-7.333,11-13s0.833-11.167-2.5-16.5     l-43-98l21-33h116v142c0,6,1.833,11.167,5.5,15.5s8.667,6.5,15,6.5s11.333-2.167,15-6.5s5.5-9.5,5.5-15.5v-141l53-102     c6,1.333,12,2,18,2c14,0,26.5-4.167,37.5-12.5s18.167-19.167,21.5-32.5l6,1c11.333,2,19.667-1.667,25-11     C492.333,158.729,493,153.062,491,147.062z M429,197.062c-8.667,6.667-18.667,10-30,10c-4,0-7.667-0.333-11-1l22-41l36,7     C443.333,182.062,437.667,190.395,429,197.062z" fill="#F4EEE2"/>
		</g>
	</g>
</g>
<g>
</g>
<g>
</g>
<g>
</g>
<g>
</g>
<g>
</g>
<g>
</g>
<g>
</g>
<g>
</g>
<g>
</g>
<g>
</g>
<g>
</g>
<g>
</g>
<g>
</g>
<g>
</g>
<g>
</g>
</svg>
