<?xml version="1.0" encoding="iso-8859-1"?>
<!-- Generator: Adobe Illustrator 21.0.0, SVG Export Plug-In . SVG Version: 6.00 Build 0)  -->
<svg xmlns="http://www.w3.org/2000/svg" xmlns:xlink="http://www.w3.org/1999/xlink" version="1.1" id="Capa_1" x="0px" y="0px" viewBox="0 0 512 512" style="enable-background:new 0 0 512 512;" xml:space="preserve" width="512px" height="512px">
<g>
	<g>
		<polygon points="279.323,205.119 279.323,156.226 232.677,156.226 232.677,205.119 183.784,205.119 183.784,251.765     232.677,251.765 232.677,300.658 279.323,300.658 279.323,251.765 328.216,251.765 328.216,205.119   " fill="#F4EEE2"/>
	</g>
</g>
<g>
	<g>
		<path d="M467.562,65.12C409.399,6.956,315.366,5.984,256,62.203C196.636,5.984,102.604,6.955,44.437,65.12    C15.782,93.776,0,131.876,0,172.401c0,40.525,15.781,78.625,44.437,107.28L256,491.245l211.563-211.564    C496.219,251.026,512,212.926,512,172.401C512,131.876,496.218,93.776,467.562,65.12z M358.216,281.765h-48.893v48.893H202.677    v-48.893h-48.893V175.119h48.893v-48.893h106.646v48.893h48.893V281.765z" fill="#F4EEE2"/>
	</g>
</g>
<g>
</g>
<g>
</g>
<g>
</g>
<g>
</g>
<g>
</g>
<g>
</g>
<g>
</g>
<g>
</g>
<g>
</g>
<g>
</g>
<g>
</g>
<g>
</g>
<g>
</g>
<g>
</g>
<g>
</g>
</svg>
